:FULLY-SPECIFIED
:FORCE-ALL-JOINTS-BE-3DOF
:DEGREES
204
root 4.87732 15.059 -25.4293 7.07764 -1.63086 5.70066
lfemur 7.76387 -1.25168 0.614201
ltibia 5.81595 0 0
lfoot -35.9075 -12.7284 0
ltoes 46.8864 0 0
rfemur -31.1628 -19.4668 -8.84644
rtibia 50.5057 0 0
rfoot -26.478 17.8656 0
rtoes 60.1521 0 0
lowerback -3.53686 -1.59159 -0.388914
upperback -0.572166 -2.01307 -7.7479
thorax 1.12633 -1.01101 -7.97579
lowerneck -11.6857 0.40345 6.8474
upperneck 3.78247 -0.661226 2.53792
head 3.29318 -0.100511 -0.41573
lclavicle 9.93923e-17 -1.27222e-14 0
lhumerus -58.9313 -46.763 115.811
lradius 54.0188 0 0
lwrist 26.8256 0 0
lhand 39.9977 30.8286 0
lfingers 7.12502 0 0
lthumb 62.3933 41.8241 0
rclavicle 9.93923e-17 -1.27222e-14 0
rhumerus -3.26601 -12.1528 -11.388
rradius 53.9006 0 0
rwrist -23.879 0 0
rhand -21.1893 -49.6806 0
rfingers 7.12502 0 0
rthumb 5.19161 -439.597 0
205
root 4.85904 15.0498 -25.4437 7.14358 -1.59112 5.64891
lfemur 7.65456 -1.49216 0.720539
ltibia 5.78083 0 0
lfoot -35.9667 -12.3616 0
ltoes 46.9513 0 0
rfemur -31.4294 -19.7482 -8.66764
rtibia 50.774 0 0
rfoot -26.5277 18.0659 0
rtoes 60.2027 0 0
lowerback -3.27555 -1.52203 -0.424398
upperback -0.619828 -1.93468 -7.69937
thorax 0.943512 -0.97521 -7.8891
lowerneck -11.5595 0.393087 6.89238
upperneck 3.80064 -0.665851 2.46483
head 3.27505 -0.105558 -0.447718
lclavicle -2.72213e-15 -2.49947e-14 0
lhumerus -59.1247 -46.8442 116.093
lradius 54.05 0 0
lwrist 26.2432 0 0
lhand 40.1984 30.361 0
lfingers 7.12502 0 0
lthumb 62.5587 41.1356 0
rclavicle -2.72213e-15 -2.49947e-14 0
rhumerus -3.11841 -17.9914 -12.4733
rradius 54.2938 0 0
rwrist -23.1911 0 0
rhand -28.2449 -53.9685 0
rfingers 7.12502 0 0
rthumb -1.61808 -453.015 0
206
root 4.8382 15.0428 -25.4599 7.22191 -1.49406 5.56973
lfemur 7.41446 -1.80078 0.873488
ltibia 5.89117 0 0
lfoot -35.9252 -12.0133 0
ltoes 47.0801 0 0
rfemur -31.674 -20.0159 -8.44647
rtibia 51.0266 0 0
rfoot -26.6135 18.2143 0
rtoes 60.2406 0 0
lowerback -2.98177 -1.47957 -0.468061
upperback -0.659874 -1.89363 -7.62106
thorax 0.746849 -0.958079 -7.76591
lowerneck -11.4258 0.407527 6.90478
upperneck 3.78025 -0.630555 2.3926
head 3.243 -0.0926367 -0.471087
lclavicle -2.97568e-15 -2.30799e-14 0
lhumerus -59.2862 -46.8336 116.324
lradius 54.1371 0 0
lwrist 25.7907 0 0
lhand 40.1962 29.9675 0
lfingers 7.12502 0 0
lthumb 62.5555 40.7352 0
rclavicle -2.97568e-15 -2.30799e-14 0
rhumerus -3.42507 -22.8687 -13.445
rradius 55.6993 0 0
rwrist -22.8557 0 0
rhand -34.6425 -57.7554 0
rfingers 7.12502 0 0
rthumb -7.78863 -480.642 0
207
root 4.81568 15.0379 -25.4773 7.30987 -1.34945 5.46365
lfemur 7.056 -2.16035 1.06856
ltibia 6.14467 0 0
lfoot -35.7947 -11.6868 0
ltoes 47.2595 0 0
rfemur -31.8929 -20.2612 -8.188
rtibia 51.2558 0 0
rfoot -26.7284 18.3105 0
rtoes 60.2659 0 0
lowerback -2.67072 -1.46545 -0.517339
upperback -0.690557 -1.89075 -7.51415
thorax 0.5466 -0.959852 -7.60944
lowerneck -11.2897 0.447121 6.88715
upperneck 3.72573 -0.555973 2.32154
head 3.19957 -0.0617953 -0.486293
lclavicle -1.6349e-15 -1.22632e-14 0
lhumerus -59.416 -46.7362 116.507
lradius 54.2735 0 0
lwrist 25.4767 0 0
lhand 39.9768 29.6418 0
lfingers 7.12502 0 0
lthumb 62.3707 40.6251 0
rclavicle -1.6349e-15 -1.22632e-14 0
rhumerus -4.10875 -26.7205 -14.3057
rradius 57.9204 0 0
rwrist -22.7686 0 0
rhand -40.2362 -60.8669 0
rfingers 7.12502 0 0
rthumb -13.1807 -516.664 0
208
root 4.79237 15.0354 -25.4951 7.40472 -1.16707 5.3312
lfemur 6.59163 -2.55366 1.30127
ltibia 6.53906 0 0
lfoot -35.5868 -11.3848 0
ltoes 47.4762 0 0
rfemur -32.0822 -20.4751 -7.89735
rtibia 51.4539 0 0
rfoot -26.865 18.3539 0
rtoes 60.2784 0 0
lowerback -2.35756 -1.48091 -0.569669
upperback -0.710129 -1.92685 -7.3798
thorax 0.353023 -0.980768 -7.42289
lowerneck -11.1564 0.512224 6.84206
upperneck 3.64153 -0.442739 2.25195
head 3.14727 -0.0130807 -0.493796
lclavicle 3.2658e-16 2.16982e-15 0
lhumerus -59.5141 -46.5565 116.643
lradius 54.4526 0 0
lwrist 25.3099 0 0
lhand 39.5261 29.3777 0
lfingers 7.12502 0 0
lthumb 61.9915 40.8071 0
rclavicle 3.2658e-16 2.16982e-15 0
rhumerus -5.09217 -29.4826 -15.0582
rradius 60.7605 0 0
rwrist -22.8255 0 0
rhand -44.8804 -63.1286 0
rfingers 7.12502 0 0
rthumb -17.6551 -555.267 0
209
root 4.76916 15.0352 -25.5128 7.5037 -0.956727 5.17292
lfemur 6.0338 -2.96352 1.56713
ltibia 7.07203 0 0
lfoot -35.3133 -11.1105 0
ltoes 47.717 0 0
rfemur -32.2382 -20.6488 -7.5796
rtibia 51.6134 0 0
rfoot -27.0162 18.3443 0
rtoes 60.2784 0 0
lowerback -2.05748 -1.52718 -0.62249
upperback -0.71684 -2.00279 -7.21922
thorax 0.176377 -1.02106 -7.20948
lowerneck -11.0308 0.603185 6.77208
upperneck 3.53205 -0.29149 2.18414
head 3.08862 0.0534596 -0.49405
lclavicle 1.93511e-15 1.49338e-14 0
lhumerus -59.5805 -46.2994 116.734
lradius 54.6679 0 0
lwrist 25.2991 0 0
lhand 38.8298 29.1689 0
lfingers 7.12502 0 0
lthumb 61.4053 41.2834 0
rclavicle 1.93511e-15 1.49338e-14 0
rhumerus -6.29809 -31.0905 -15.7051
rradius 64.0227 0 0
rwrist -22.9222 0 0
rhand -48.4291 -64.3661 0
rfingers 7.12502 0 0
rthumb -21.0725 -590.639 0
